<svg xmlns="http://www.w3.org/2000/svg" height="40" viewBox="0 96 960 960" width="40"><path d="m774.667 940-294-294-109.334 109.333q10 16.334 12.667 32.667 2.666 16.333 2.666 34.667 0 64.666-44.333 109Q298 976 233.333 976q-64.666 0-109-44.333Q80 887.333 80 822.667q0-64.667 44.333-109 44.334-44.333 109-44.333 17.667 0 35 4.333 17.334 4.333 35 13.667L412 578.667 302 468.666q-16.333 8-33.667 11-17.333 3-35 3-64.666 0-109-44.333Q80 394 80 329.333q0-64.666 44.333-109Q168.667 176 233.333 176q64.667 0 109 44.333 44.333 44.334 44.333 109 0 18.334-2.666 35.334-2.667 17-10.667 32L880.667 904v36h-106ZM599.333 531.333l-70.666-70.666 246-246h106V250L599.333 531.333ZM233.333 416q36.334 0 61.5-25.167Q320 365.667 320 329.333q0-36.333-25.167-61.5-25.166-25.167-61.5-25.167-36.333 0-61.5 25.167t-25.167 61.5q0 36.334 25.167 61.5Q197 416 233.333 416ZM482 598q8 0 13.667-5.667 5.666-5.666 5.666-13.666T495.667 565Q490 559.333 482 559.333T468.333 565q-5.666 5.667-5.666 13.667t5.666 13.666Q474 598 482 598ZM233.333 909.334q36.334 0 61.5-25.167Q320 859 320 822.667q0-36.334-25.167-61.5Q269.667 736 233.333 736q-36.333 0-61.5 25.167-25.167 25.166-25.167 61.5 0 36.333 25.167 61.5t61.5 25.167Z"/></svg>